<svg preserveAspectRatio="none" width="100%" height="100%" overflow="visible" style="display: block;" viewBox="0 0 25.5 21.7498" fill="none" xmlns="http://www.w3.org/2000/svg">
<path id="Vector" d="M12.75 7.49977V20.2498M12.75 20.2498L12.0231 19.1597C11.3772 18.1907 11.0532 17.7048 10.6248 17.3527C10.2439 17.0396 9.80383 16.8051 9.33212 16.6618C8.79929 16.5 8.21244 16.5 7.03842 16.5H3.49747C2.79877 16.5 2.44951 16.5 2.18238 16.3639C1.94718 16.2441 1.75609 16.0523 1.63625 15.8171C1.50001 15.5497 1.50001 15.2002 1.50001 14.5001V3.50013C1.50001 2.80007 1.50001 2.44977 1.63625 2.18238C1.75609 1.94718 1.94718 1.75609 2.18238 1.63625C2.44977 1.50001 2.79946 1.50001 3.49952 1.50001H6.74952C8.84972 1.50001 9.90006 1.50001 10.7022 1.90874C11.4078 2.26826 11.9815 2.84213 12.3411 3.54774C12.7498 4.34991 12.75 5.39957 12.75 7.49977C12.75 5.39957 12.75 4.34991 13.1587 3.54774C13.5183 2.84213 14.0915 2.26826 14.7971 1.90874C15.5993 1.50001 16.6496 1.50001 18.7498 1.50001H21.9998C22.6998 1.50001 23.0501 1.50001 23.3175 1.63625C23.5527 1.75609 23.7434 1.94718 23.8633 2.18238C23.9995 2.44977 24 2.80007 24 3.50013V14.5001C24 15.2002 23.9995 15.5497 23.8633 15.8171C23.7434 16.0523 23.5531 16.2441 23.3179 16.3639C23.0508 16.5 22.7012 16.5 22.0026 16.5H18.4617C17.2877 16.5 16.6996 16.5 16.1668 16.6618C15.695 16.8051 15.2571 17.0396 14.8762 17.3527C14.446 17.7063 14.12 18.1947 13.4688 19.1715L12.75 20.2498Z" stroke="var(--stroke-0, #272727)" stroke-width="3" stroke-linecap="round" stroke-linejoin="round"/>
</svg>
