<svg preserveAspectRatio="none" width="100%" height="100%" overflow="visible" style="display: block;" viewBox="0 0 25.5 24.1493" fill="none" xmlns="http://www.w3.org/2000/svg">
<path id="Vector" d="M4.74952 21.4004L6.65447 19.8765L6.66848 19.8657C7.06562 19.548 7.26602 19.3877 7.48961 19.2734C7.6902 19.171 7.90411 19.0963 8.12476 19.051C8.37347 19 8.63255 19 9.15259 19H20.0039C21.4013 19 22.1008 19 22.635 18.7278C23.1054 18.4881 23.4881 18.1053 23.7278 17.6349C24 17.1006 24 16.4019 24 15.0045V5.49614C24 4.09875 24 3.39901 23.7278 2.86475C23.4881 2.39434 23.1047 2.01217 22.6343 1.77249C22.0995 1.5 21.4004 1.5 20.0003 1.5H5.50025C4.10012 1.5 3.39953 1.5 2.86475 1.77249C2.39435 2.01217 2.01217 2.39434 1.77249 2.86475C1.50001 3.39953 1.50001 4.10012 1.50001 5.50025V19.839C1.50001 21.1711 1.50001 21.8371 1.77308 22.1791C2.01056 22.4767 2.37055 22.6497 2.75123 22.6493C3.18895 22.6489 3.7093 22.2326 4.74952 21.4004Z" stroke="var(--stroke-0, white)" stroke-width="3" stroke-linecap="round" stroke-linejoin="round"/>
</svg>
