<svg preserveAspectRatio="none" width="100%" height="100%" overflow="visible" style="display: block;" viewBox="0 0 33.6669 34.3236" fill="none" xmlns="http://www.w3.org/2000/svg">
<path id="Vector" d="M32.1668 27.073V16.4395C32.1668 15.4153 32.1659 14.903 32.0414 14.4264C31.931 14.0041 31.7499 13.6044 31.5047 13.2433C31.2281 12.8357 30.8434 12.4978 30.0727 11.8234L20.8727 3.77338C19.4417 2.52125 18.7262 1.8955 17.921 1.65737C17.2114 1.44754 16.4551 1.44754 15.7456 1.65737C14.941 1.89532 14.2265 2.52048 12.7977 3.77072L3.59462 11.8234C2.82386 12.4978 2.43938 12.8357 2.16273 13.2433C1.91757 13.6044 1.73502 14.0041 1.62467 14.4264C1.50014 14.903 1.50014 15.4153 1.50014 16.4395V27.073C1.50014 28.8591 1.50014 29.7518 1.79193 30.4563C2.18099 31.3956 2.92675 32.1427 3.86602 32.5318C4.57048 32.8236 5.46353 32.8236 7.24964 32.8236C9.03575 32.8236 9.9298 32.8236 10.6343 32.5318C11.5735 32.1427 12.3191 31.3958 12.7081 30.4565C12.9999 29.752 13.0001 28.859 13.0001 27.0729V25.1562C13.0001 23.0391 14.7164 21.3229 16.8335 21.3229C18.9506 21.3229 20.6668 23.0391 20.6668 25.1562V27.0729C20.6668 28.859 20.6668 29.752 20.9586 30.4565C21.3477 31.3958 22.0934 32.1427 23.0327 32.5318C23.7371 32.8236 24.6302 32.8236 26.4163 32.8236C28.2024 32.8236 29.0965 32.8236 29.8009 32.5318C30.7402 32.1427 31.4858 31.3956 31.8748 30.4563C32.1666 29.7518 32.1668 28.8591 32.1668 27.073Z" stroke="var(--stroke-0, #3D59C6)" stroke-width="3" stroke-linecap="round" stroke-linejoin="round"/>
</svg>
