<svg preserveAspectRatio="none" width="100%" height="100%" overflow="visible" style="display: block;" viewBox="0 0 27 27" fill="none" xmlns="http://www.w3.org/2000/svg">
<path id="Vector" d="M13.5 9L18 13.5L13.5 18M18 13.5H1.5M1.5 6.37203V6.3003C1.5 4.62014 1.5 3.77943 1.82698 3.1377C2.1146 2.57321 2.57321 2.1146 3.1377 1.82698C3.77943 1.5 4.62014 1.5 6.3003 1.5H20.7003C22.3805 1.5 23.2194 1.5 23.8611 1.82698C24.4256 2.1146 24.8857 2.57321 25.1733 3.1377C25.5 3.77881 25.5 4.61849 25.5 6.29537V20.7054C25.5 22.3822 25.5 23.2207 25.1733 23.8618C24.8857 24.4263 24.4256 24.8857 23.8611 25.1733C23.22 25.5 22.3815 25.5 20.7046 25.5H6.29537C4.61849 25.5 3.77881 25.5 3.1377 25.1733C2.57321 24.8857 2.1146 24.4259 1.82698 23.8614C1.5 23.2197 1.5 22.3802 1.5 20.7V20.625" stroke="var(--stroke-0, white)" stroke-width="3" stroke-linecap="round" stroke-linejoin="round"/>
</svg>
