<svg preserveAspectRatio="none" width="100%" height="100%" overflow="visible" style="display: block;" viewBox="0 0 37.5 37.5" fill="none" xmlns="http://www.w3.org/2000/svg">
<path id="Vector" d="M28.7485 32.8035C26.2919 30.0599 22.7226 28.3333 18.75 28.3333C14.7774 28.3333 11.2078 30.0599 8.75114 32.8035M18.75 36C9.22309 36 1.5 28.2769 1.5 18.75C1.5 9.22309 9.22309 1.5 18.75 1.5C28.2769 1.5 36 9.22309 36 18.75C36 28.2769 28.2769 36 18.75 36ZM18.75 22.5833C15.5744 22.5833 13 20.009 13 16.8333C13 13.6577 15.5744 11.0833 18.75 11.0833C21.9256 11.0833 24.5 13.6577 24.5 16.8333C24.5 20.009 21.9256 22.5833 18.75 22.5833Z" stroke="var(--stroke-0, #3D59C6)" stroke-width="3" stroke-linecap="round" stroke-linejoin="round"/>
</svg>
