<svg preserveAspectRatio="none" width="100%" height="100%" overflow="visible" style="display: block;" viewBox="0 0 26.286 26.2857" fill="none" xmlns="http://www.w3.org/2000/svg">
<path id="Vector" d="M7.42858 13.1429H13.1429M13.1429 13.1429H18.8571M13.1429 13.1429V18.8571M13.1429 13.1429V7.42858M1.71429 20.0003V6.286C1.71429 4.68585 1.71429 3.88518 2.0257 3.274C2.29962 2.73639 2.73639 2.29962 3.274 2.0257C3.88518 1.71429 4.68585 1.71429 6.286 1.71429H20.0003C21.6004 1.71429 22.4001 1.71429 23.0113 2.0257C23.5489 2.29962 23.9864 2.73639 24.2603 3.274C24.5717 3.88518 24.5717 4.68525 24.5717 6.2854V19.9997C24.5717 21.5999 24.5717 22.4 24.2603 23.0111C23.9864 23.5487 23.5489 23.9864 23.0113 24.2603C22.4007 24.5714 21.6021 24.5714 20.0051 24.5714H6.2813C4.68428 24.5714 3.88458 24.5714 3.274 24.2603C2.73639 23.9864 2.29962 23.5489 2.0257 23.0113C1.71429 22.4001 1.71429 21.6004 1.71429 20.0003Z" stroke="var(--stroke-0, white)" stroke-width="3.42857" stroke-linecap="round" stroke-linejoin="round"/>
</svg>
