<svg preserveAspectRatio="none" width="100%" height="100%" overflow="visible" style="display: block;" viewBox="0 0 24.1757 24.1754" fill="none" xmlns="http://www.w3.org/2000/svg">
<path id="Vector" d="M10.5806 13.5947L16.3495 7.82579M22.2509 4.30511L17.3813 20.1312C16.9449 21.5495 16.7266 22.259 16.3502 22.4942C16.0237 22.6982 15.6195 22.7323 15.2639 22.5847C14.8539 22.4146 14.5211 21.7502 13.8573 20.4226L10.773 14.2539C10.6676 14.0432 10.6149 13.9383 10.5446 13.847C10.4821 13.766 10.4101 13.6931 10.329 13.6306C10.2398 13.5618 10.1367 13.5103 9.9354 13.4096L3.75256 10.3182C2.42488 9.65439 1.76098 9.32216 1.59086 8.91216C1.44332 8.55659 1.47697 8.152 1.68095 7.82553C1.91616 7.44908 2.6256 7.23038 4.04435 6.79384L19.8704 1.92428C20.9858 1.58108 21.5437 1.40963 21.9205 1.54793C22.2486 1.66841 22.5073 1.92686 22.6278 2.25501C22.766 2.63157 22.5944 3.1892 22.2516 4.30346L22.2509 4.30511Z" stroke="var(--stroke-0, white)" stroke-width="3" stroke-linecap="round" stroke-linejoin="round"/>
</svg>
