<svg preserveAspectRatio="none" width="100%" height="100%" overflow="visible" style="display: block;" viewBox="0 0 1512 1512" fill="none" xmlns="http://www.w3.org/2000/svg">
<path id="Vector" d="M1511.38 0V250.482L1428.64 167.744V0H1427.13L1427.38 0.2583V166.477L1344.65 83.7396V0H1343.39V83.7396L1260.65 166.477V0H755.383V83.7396L672.644 166.477V0H671.126L588.645 82.4796V0H587.385V83.7396L504.647 166.477V0H0V252.63H250.484L167.745 335.368H0V336.886L0.258302 336.628H166.479L83.7403 419.366H0V420.626H83.7403L166.479 503.364H0V504.624H166.479L83.7403 587.362H0V588.622H82.4803L0 671.107V672.626H166.479L83.7403 755.364H0V1511.99H504.634V1345.52L587.373 1428.25V1511.99H588.633V1428.25L671.371 1345.52V1511.74L671.113 1511.99H672.631V1344.26L755.37 1261.52V1512H1260.63V1428.26L1260.89 1428L1260.63 1427.74V1345.52L1343.37 1428.26V1512H1344.63V1429.52L1427.11 1512H1428.63V1345.52L1511.37 1428.26V1512H1512V755.37H1261.52L1344.25 672.632H1511.99V671.114L1511.74 671.372H1345.51L1428.25 588.634H1511.99V587.374H1428.25L1345.51 504.636H1511.99V503.376H1345.51L1428.25 420.638H1511.99V419.378H1429.51L1511.99 336.899V335.38H1345.51L1428.25 252.643H1511.99V0H1511.36H1511.38ZM1344.01 84.8925L1427.38 168.26V251.37H1260.63V168.26L1344 84.8925H1344.01ZM1428.64 169.52L1510.49 251.37H1428.64V169.52ZM924.268 1427.37L841.529 1344.63H1007.75L1090.49 1427.37H924.268ZM589.527 1259.37L672.266 1176.63H839.747L922.485 1259.37H589.527ZM419.741 1427.37H253.52L336.259 1344.63H502.48L419.741 1427.37ZM84.6286 924.26L167.367 841.522V1007.74L84.6286 1090.48V924.26ZM250.477 756.63L168.627 838.48V756.63H250.477ZM252.632 587.74V420.26L335.371 337.522V671.744L252.632 754.482V588.262L252.89 588.004L252.632 587.746V587.74ZM502.486 167.372H336.265L253.527 84.6342H419.747L502.486 167.372ZM840.269 84.6342H1006.49L923.751 167.372H757.531L840.269 84.6342ZM1259.75 840.634L1342.49 923.372H1176.27L1093.53 840.634H1259.75ZM1175.12 924.002L1091.76 1007.37H1008.64V840.628H1091.76L1175.12 923.996V924.002ZM1259.39 1344.26V1426.48L1093.54 1260.64H1259.39V1343.75L1259.13 1344L1259.39 1344.26ZM924.274 1259.37L840.906 1176L924.274 1092.63H1007.38V1259.38H924.274V1259.37ZM839.753 1175.37H673.532L756.271 1092.63H922.491L839.753 1175.37ZM168.268 1343.37L85.5295 1260.64H418.487L335.749 1343.37H168.268ZM251.378 1093.52V1259.37H85.5295L251.378 1093.52ZM756.636 169.52L838.487 251.37H756.636V169.52ZM1091.75 168.632L1174.49 251.37H841.529L924.268 168.632H1091.75ZM1259.38 420.26V587.74L1176.64 670.477V336.256L1259.38 253.518V419.737L1259.12 419.996L1259.38 420.254V420.26ZM925.528 1091.37L1007.38 1009.52V1091.37H925.528ZM589.527 1091.37L672.266 1008.63H756.636H1006.49L923.751 1091.37H589.527ZM420.636 1259.37V1177.52L502.486 1259.37H420.636ZM503.374 1260.63V1342.48L421.524 1260.63H503.374ZM419.376 1259.37H252.632V1176.26L336.001 1092.89L419.369 1176.26V1259.37H419.376ZM420.636 420.26L503.374 337.522V503.37V670.477L420.636 587.74V420.26ZM588.009 252.888L588.267 252.63H839.747L922.485 335.368H588.261L505.522 252.63H587.744L588.003 252.888H588.009ZM1092.64 754.475V588.256L1175.38 505.518V671.737L1092.64 754.475ZM335.377 1091.73L252.638 1174.47V841.51L335.377 924.248V1091.73V1091.73ZM334.489 756.624L252.638 838.473V756.624H334.489ZM252.903 839.992L335.383 757.512V922.471L252.903 839.992ZM504.647 755.364V589.516L587.385 672.254V839.733L504.647 922.471V755.364ZM586.497 335.362H504.647V253.512L586.497 335.362ZM504.647 336.622H587.757L671.126 419.99L587.757 503.357H504.647V336.615V336.622ZM1091.39 587.733L1008.65 670.471V420.254L1008.91 419.996L1008.65 419.737V337.516L1091.39 420.254V587.733ZM1091.39 754.475L1008.91 671.996L1091.39 589.516V754.475ZM1007.39 1006.48L924.652 923.737V589.516L1007.13 671.996L1007.39 672.254V755.364V1006.47V1006.48ZM672.279 420.626H839.759L922.498 503.364H840.282L840.024 503.105L839.765 503.364H755.395H589.546L672.285 420.626H672.279ZM923.392 754.475L840.654 671.737V505.518L923.392 588.256V754.475ZM672.65 588.256L755.389 505.518V587.733L755.131 587.992L755.389 588.25V755.987V839.727L672.65 922.465V588.244V588.256ZM754.501 504.624L672.65 586.473V504.624H754.501ZM755.389 841.516V1007.36H589.54L755.389 841.516ZM756.649 504.624H838.499L756.649 586.473V504.624ZM839.387 505.512V670.471L756.907 587.992L839.387 505.512ZM841.542 504.624H923.758L924.016 504.882L924.274 504.624H1007.38V670.471L841.536 504.624H841.542ZM925.541 503.364L1007.39 421.514V503.364H925.541ZM924.016 503.105L841.536 420.626H1006.5L924.016 503.105ZM671.384 504.624V587.733L588.015 671.101L504.647 587.733V504.624H671.39H671.384ZM588.645 672.254L671.384 589.516V755.735L588.645 838.473V672.254ZM671.384 757.512V923.731L588.645 1006.47V840.25L671.384 757.512ZM587.385 1006.47L504.905 923.99L587.385 841.51V1006.47ZM586.497 1007.36H504.647V925.508L586.497 1007.36ZM756.649 755.987V589.51L839.387 672.248V839.727L756.649 922.465V755.987ZM840.647 673.508L923.386 756.246V922.465L840.647 839.727V673.508ZM1007.39 252.617V418.465L841.542 252.617H1007.39ZM1006.5 419.36H840.282L757.543 336.622H923.764L1006.5 419.36ZM755.761 336.622L838.499 419.36H672.279L589.54 336.622H755.761ZM756.649 924.254L840.017 840.886L923.386 924.254V1007.36H756.643V924.254H756.649ZM924.652 925.514L1006.5 1007.36H924.652V925.514ZM1008.65 673.514L1090.5 755.364H1008.65V673.514ZM1175.39 503.729L1092.66 586.467V420.248L1175.39 337.51V503.729ZM1092.03 419.101L1008.66 335.733V252.624H1175.4V335.733L1092.03 419.101H1092.03ZM503.393 334.473L421.543 252.624H503.393V334.473ZM420.655 253.518L503.135 335.998L420.655 418.477V253.518ZM336.656 1091.73V925.514L419.394 1008.25V1174.47L336.656 1091.73ZM419.394 1006.48L336.656 923.737V757.518L419.394 840.256V1006.48ZM337.544 756.624H503.393V922.471L337.544 756.624ZM587.763 1008.62L588.022 1008.88L588.28 1008.62H670.496L504.647 1174.47V1008.62H587.757H587.763ZM1093.55 755.364L1259.4 589.516V755.364H1093.55ZM1176.66 334.473V252.624H1258.51L1176.66 334.473ZM840.03 251.105L757.55 168.626H922.51L840.03 251.105ZM421.549 251.364L503.399 169.514V251.364H421.549ZM420.031 251.105L337.55 168.626H502.511L420.031 251.105ZM418.512 252.624L252.664 418.471V252.624H418.512ZM419.401 253.512V419.731L336.662 502.469V336.25L419.401 253.512ZM336.662 504.252L419.401 421.514V587.733L336.662 670.471V504.252ZM420.031 588.88L503.399 672.248V755.357H336.656V672.248L420.025 588.88H420.031ZM335.402 755.357H253.552L335.402 673.508V755.357ZM420.031 1260.88L502.511 1343.36H337.55L420.031 1260.88ZM420.661 1175.72V841.51L503.141 923.99L503.399 924.248V1008.62V1175.72L503.141 1175.98L503.399 1176.24V1258.46L420.661 1175.72ZM505.554 1175.35L588.293 1092.62H754.513L671.775 1175.35H505.554ZM670.515 1176.61L588.034 1259.09L505.554 1176.61H670.515ZM1008.67 1259.35V1093.5L1174.52 1259.35H1008.67ZM1009.56 1092.61H1175.78L1258.52 1175.35H1092.3L1009.56 1092.61ZM1009.56 1091.35L1092.04 1008.87L1174.52 1091.35H1009.56ZM1008.67 1090.46V1008.61H1090.52L1008.67 1090.46ZM1008.67 839.349V757.499L1090.52 839.349H1008.67ZM1259.38 83.3679H1177.53L1259.38 1.5183V83.3679ZM1259.38 84.6279V251.37H1176.27L1092.9 168.002L1176.27 84.6342H1259.38V84.6279ZM1091.75 167.366H925.528L1008.27 84.6279H1174.49L1091.75 167.366ZM504.634 251.364V169.514L586.484 251.364H504.634ZM251.744 84.6279L334.482 167.366H168.262L85.5232 84.6279H251.744ZM168.262 168.626H335.742L418.481 251.364H85.5232L168.262 168.626ZM251.372 757.518V839.74L251.114 839.998L251.372 840.256V1091.73L168.634 1174.47V840.25L251.372 757.512V757.518ZM167.374 1009.52V1175.74L84.6349 1258.48V1092.26L167.374 1009.52ZM83.3749 1258.48L0.888307 1176L83.3686 1093.52V1258.48L83.3749 1258.48ZM167.115 1344L83.7466 1427.37H0.630005V1260.62H83.7403L167.109 1343.99L167.115 1344ZM168.268 1344.63H334.489L251.75 1427.37H85.5232L168.262 1344.63H168.268ZM504.641 1177.52L586.491 1259.37H504.641V1177.52ZM756.643 1261.52L838.493 1343.37H756.643V1261.52ZM757.531 1260.63H1007.38H1091.76L1174.49 1343.37H840.276L757.537 1260.63H757.531ZM1009.53 1344.63H1175.75L1258.49 1427.37H1092.27L1009.53 1344.63ZM1258.49 1428.63L1176.01 1511.11L1093.53 1428.63H1258.49ZM1344.27 1259.36L1344.02 1259.11L1343.76 1259.36H1176.28L1093.54 1176.63H1427.76L1510.5 1259.36H1344.28H1344.27ZM1260.28 1175.37L1177.54 1092.63H1343.76L1426.5 1175.37H1260.28ZM1343.76 1091.37H1176.28L1093.54 1008.63H1426.5L1343.76 1091.37ZM1093.54 1007.37L1176.28 924.632H1343.76L1426.5 1007.37H1093.53H1093.54ZM1345.54 924.632H1510.5L1428.02 1007.11L1345.54 924.632ZM1344.28 923.372L1261.54 840.634H1427.76L1510.5 923.372H1344.28ZM1092.28 839.374L1009.54 756.636H1091.76L1092.02 756.895L1092.28 756.636H1343.76L1426.5 839.374H1092.28ZM1175.76 83.3742H841.536L924.268 0.63H1258.49L1175.75 83.3679L1175.76 83.3742ZM922.485 0.63L756.636 166.477V0.63H922.485ZM755.376 167.737L755.118 167.996L755.376 168.254V251.364H589.527L755.376 85.5162V167.737ZM671.378 1.5183V167.737L588.639 250.475V84.2625L671.378 1.5183ZM587.379 85.5162V250.475L504.899 167.996L587.379 85.5162ZM503.374 0.63V166.477L337.525 0.63H503.374ZM335.742 0.63L418.481 83.3679H84.2632L1.51831 0.63H335.736H335.742ZM82.4803 83.3679H0.630005V1.5183L82.4803 83.3679ZM0.630005 84.6279H83.7403L167.109 167.996L83.7403 251.364H0.630005V84.6279ZM251.372 253.518V335.368H169.522L251.372 253.518ZM168.262 336.628H251.372V503.37H168.262L168.004 503.112L84.8932 420.002L168.262 336.634V336.628ZM251.372 504.63V586.48L169.522 504.63H251.372ZM168.004 504.888L250.484 587.368H85.5232L168.004 504.888ZM1.51831 671.372L84.2569 588.634H250.477L167.739 671.372H1.51831ZM251.372 589.522V755.37H85.5232L251.372 589.522ZM167.374 756.63V839.74L84.0049 923.107L0.630005 839.74V756.63H167.374ZM0.630005 841.522L83.3686 924.26V1091.74L0.630005 1174.48V841.516V841.522ZM82.4803 1259.37H0.630005V1177.52L82.4803 1259.37ZM0.630005 1428.63H82.4803L0.630005 1510.48V1428.63ZM84.2632 1428.63H418.481L335.742 1511.37H1.51831L84.2569 1428.63H84.2632ZM337.525 1511.37L503.374 1345.52V1511.37H337.525ZM588.009 1427.11L504.899 1344L504.641 1343.74V1260.63H587.751L588.009 1260.89L588.267 1260.63H671.378V1343.74L588.009 1427.11ZM672.638 1260.63H754.488L672.638 1342.48V1260.63ZM756.636 1344.63H839.747L923.115 1428L839.747 1511.36H756.636V1344.62V1344.63ZM841.529 1511.37L924.268 1428.63H1091.75L1174.49 1511.37H841.523H841.529ZM1177.53 1511.37L1259.38 1429.52V1511.37H1177.53ZM1260.64 1260.63H1342.49L1260.64 1342.48V1260.63ZM1260.9 1344L1343.38 1261.52V1426.48L1260.9 1344ZM1427.38 1510.48L1344.64 1427.74V1261.52L1427.38 1344.26V1510.48ZM1511.38 1426.48L1345.53 1260.63H1511.38V1426.48ZM1511.38 1258.48L1429.53 1176.63H1511.38V1258.48ZM1428.27 1175.37L1344.9 1092L1428.27 1008.64H1511.38V1175.38H1428.27V1175.37ZM1511.38 1007.37H1429.53L1511.38 925.52V1007.37ZM1345.53 756.63H1511.38V922.477L1345.53 756.63ZM1260.63 754.475V672.626H1342.48L1260.63 754.475ZM1343.74 671.366H1260.63V504.624H1343.74L1344 504.882L1427.11 587.992L1343.74 671.36V671.366ZM1260.63 503.364V421.514L1342.48 503.364H1260.63ZM1344 503.105L1261.52 420.626H1426.48L1344 503.105ZM1510.48 336.628L1427.74 419.366H1261.52L1344.26 336.628H1510.48ZM1260.63 418.477V252.63H1426.48L1260.63 418.477Z" fill="url(#paint0_radial_51_34)" fill-opacity="0.75"/>
<defs>
<radialGradient id="paint0_radial_51_34" cx="0" cy="0" r="1" gradientUnits="userSpaceOnUse" gradientTransform="translate(733.616 756) scale(740.355 740.349)">
<stop stop-color="#3D59C6" stop-opacity="0.36"/>
<stop offset="1" stop-color="#3D59C6"/>
</radialGradient>
</defs>
</svg>
