<svg preserveAspectRatio="none" width="100%" height="100%" overflow="visible" style="display: block;" viewBox="0 0 29.1432 26.2859" fill="none" xmlns="http://www.w3.org/2000/svg">
<path id="Vector" d="M14.5714 18.8574V14.5716M14.5714 14.5716V10.2859M14.5714 14.5716H10.2857M14.5714 14.5716H18.8571M1.71429 4.57164V20.0002C1.71429 21.6004 1.71429 22.3999 2.0257 23.0111C2.29962 23.5487 2.73639 23.9866 3.274 24.2605C3.88458 24.5716 4.68428 24.5716 6.2813 24.5716H22.8616C24.4586 24.5716 25.2571 24.5716 25.8677 24.2605C26.4053 23.9866 26.8435 23.5489 27.1175 23.0113C27.4289 22.4002 27.4289 21.6001 27.4289 19.9999L27.4289 9.14275C27.4289 7.5426 27.4289 6.74253 27.1175 6.13135C26.8435 5.59374 26.4056 5.15697 25.868 4.88305C25.2568 4.57164 24.4573 4.57164 22.8572 4.57164H14.5714M1.71429 4.57164H14.5714M1.71429 4.57164C1.71429 2.99368 2.99348 1.7145 4.57143 1.7145H9.82074C10.5196 1.7145 10.8698 1.7145 11.1986 1.79344C11.4902 1.86343 11.7684 1.97916 12.024 2.13581C12.3122 2.31245 12.5597 2.55995 13.0536 3.05378L14.5714 4.57164" stroke="var(--stroke-0, #272727)" stroke-width="3.42857" stroke-linecap="round" stroke-linejoin="round"/>
</svg>
